inDegrees=no
num_controls=7
num_derivatives=13
num_iterations=156
num_multipliers=7
num_parameters=0
num_slacks=7
num_states=26
objective=5.904747
objective_accelerations=0.749463
objective_balance=0.017388
objective_effort=0.517325
objective_height=4.593638
objective_ligament=0.026933
solver_duration=1375.220546
status=Solve_Succeeded
success=true
DataType=double
version=3
OpenSimVersion=4.4-2022-07-23-0e9fedc
endheader
time	/jointset/ground_pelvis/pelvis_tilt/value	/jointset/ground_pelvis/pelvis_tx/value	/jointset/ground_pelvis/pelvis_ty/value	/jointset/hip_r/hip_flexion_r/value	/jointset/hip_r/hip_adduction_r/value	/jointset/hip_r/hip_rotation_r/value	/jointset/back/lumbar_extension/value	/jointset/patellofemoral_r/patellar_flexion_r/value	/jointset/knee_r/knee_flexion_r/value	/jointset/knee_r/knee_adduction_r/value	/jointset/knee_r/knee_rotation_r/value	/jointset/ankle_r/ankle_angle_r/value	/jointset/subtalar_r/subtalar_angle_r/value	/jointset/ground_pelvis/pelvis_tilt/speed	/jointset/ground_pelvis/pelvis_tx/speed	/jointset/ground_pelvis/pelvis_ty/speed	/jointset/hip_r/hip_flexion_r/speed	/jointset/hip_r/hip_adduction_r/speed	/jointset/hip_r/hip_rotation_r/speed	/jointset/back/lumbar_extension/speed	/jointset/patellofemoral_r/patellar_flexion_r/speed	/jointset/knee_r/knee_flexion_r/speed	/jointset/knee_r/knee_adduction_r/speed	/jointset/knee_r/knee_rotation_r/speed	/jointset/ankle_r/ankle_angle_r/speed	/jointset/subtalar_r/subtalar_angle_r/speed	/forceset/tau_hip_flexion_r	/forceset/tau_hip_adduction_r	/forceset/tau_hip_rotation_r	/forceset/tau_knee_flexion_r	/forceset/tau_ankle_angle_r	/forceset/tau_subtalar_angle_r	/forceset/tau_lumbar_extension	lambda_cid13_p0	lambda_cid14_p0	lambda_cid14_p1	lambda_cid14_p2	lambda_cid14_p3	lambda_cid14_p4	lambda_cid14_p5	/jointset/ground_pelvis/pelvis_tilt/accel	/jointset/ground_pelvis/pelvis_tx/accel	/jointset/ground_pelvis/pelvis_ty/accel	/jointset/hip_r/hip_flexion_r/accel	/jointset/hip_r/hip_adduction_r/accel	/jointset/hip_r/hip_rotation_r/accel	/jointset/back/lumbar_extension/accel	/jointset/patellofemoral_r/patellar_flexion_r/accel	/jointset/knee_r/knee_flexion_r/accel	/jointset/knee_r/knee_adduction_r/accel	/jointset/knee_r/knee_rotation_r/accel	/jointset/ankle_r/ankle_angle_r/accel	/jointset/subtalar_r/subtalar_angle_r/accel	gamma_cid13_p0	gamma_cid14_p0	gamma_cid14_p1	gamma_cid14_p2	gamma_cid14_p3	gamma_cid14_p4	gamma_cid14_p5
1.5	-0.1230208587185583	0.02277929768877544	0.7949669643536592	0.912048099756617	-0.2440758850685151	-0.0616830157368505	-0.6371696240176512	1.017309849693309	1.017309849693121	0.02101747163171739	0.1745285090321052	0.3112516391310347	0.110948413083265	0.5448803742180264	0.2441984950258589	0.5965280314456317	-2.286062621159032	0.006001507533075765	-0.3960245341603572	0.7985677964033462	-2.16249394396067	-2.162493943960652	0.3121416324210979	1.885085796810826e-05	-0.5273047567709281	-0.1781568826221651	-0.1822543339262662	-0.00647198305340095	0.03176642839860459	-0.3127146698555882	0.01522685828231046	-0.005956123226926561	0.2271264557737334	-5.20837767935557	-37.00513619239588	-7.908168374745636	0.3601033226503836	-4.95785177352569	-626.4223138733167	65.61844287649002	0.279066814102245	0.688628784380143	-0.5939002849489541	-1.14773866918527	0.01078167254333871	-0.3675834600242602	1.992634511781955	-1.521740446027066	-1.521740446027041	0.5156129085723009	-0.07556851864475267	-0.7708680205402395	-0.08836013225912381	2.191160209366635e-08	-1.839446343250404e-07	-3.755729416380752e-06	-1.947705216916428e-06	5.315249727913437e-07	9.065578174753015e-08	-2.604267276547986e-06
1.51	-0.1175584262916516	0.02525545060834804	0.8009013488028831	0.8891322659559635	-0.244015819780262	-0.06566632871828701	-0.6290860960657736	0.9956112264452338	0.9956112264454062	0.02416161209319467	0.1745286749641965	0.3059407128829611	0.1091620610631548	0.5475184487012227	0.2510003921567246	0.5902186752000108	-2.296795337955153	0.006007236551657673	-0.40060548898329	0.8180223550616087	-2.176925645284252	-2.176925645284375	0.3166902388040301	1.338566902112236e-05	-0.5347913325175798	-0.1790828734165787	-0.1742399971229064	-0.007421051136624677	0.03148373388966111	-0.3078737053325337	0.01668223454124136	-0.006743570085836903	0.219782324178347	-6.131332879997944	-36.21034113287526	-8.028998966644105	0.2857082154170379	-4.971631511828109	-620.5880948505754	64.93067420897007	0.2430071440225311	0.6713261919836581	-0.6689625727752674	-0.9897456361329161	-0.005713919101815016	-0.4983996804599868	1.904550706206561	-1.358131426682207	-1.358131426703324	0.4245179668512561	0.03629495236854673	-0.7240449475747123	-0.09099035702251497	2.562220202610978e-08	-1.90347828195704e-07	-3.886843378687422e-06	-2.032553010225935e-06	5.454480985807297e-07	9.088778918393027e-08	-2.608303565723468e-06
1.52	-0.1120722472441994	0.02779869370213789	0.8067687378339697	0.8661183634970844	-0.2439559336889431	-0.0696944608853643	-0.6208114856946425	0.9737774368936861	0.9737774368942277	0.02735124531122609	0.1745286523386921	0.3005576223582518	0.1073671947743027	0.5496296983282019	0.2576165298693092	0.5831289478181075	-2.305676352803572	0.005965668145543539	-0.4049883712875124	0.8367842802542071	-2.18952720465417	-2.189527204654434	0.3212401837348683	-1.886066439523113e-05	-0.5417376120981141	-0.1798597363705953	-0.1662256603195444	-0.008370119219859248	0.03120103938079562	-0.3030327408094762	0.01813761080016834	-0.007531016944766569	0.2124381925829637	-7.131076534914275	-35.41062908447974	-8.141486677356195	0.201439064633455	-4.999182104873834	-614.6898730708406	64.25159796431238	0.1737018428586841	0.6514769007239514	-0.749974512205417	-0.7773982796450039	0.001322187604086325	-0.32796895628225	1.854107818649056	-1.155712055294088	-1.155712055294082	0.5158806181535199	-0.08092474753851656	-0.6628087873166396	-0.05853456417973103	2.818137316825097e-08	-1.977766999698909e-07	-3.998582329771696e-06	-2.121922162918325e-06	5.581887986876507e-07	8.640449864511392e-08	-2.593677197974588e-06
1.53	-0.1065675944325466	0.03040710254261948	0.8125614192693941	0.8430248921863241	-0.2438966415128744	-0.07376583814794824	-0.6123529176869653	0.9518268139152152	0.9518268139156827	0.03058611484344624	0.1745284690431337	0.2951078353493611	0.1055654125006779	0.5512110698426427	0.2640263477995428	0.5752858340056743	-2.312705595692654	0.005883934840001792	-0.4092623971501942	0.8547945743367676	-2.20028481712622	-2.200284817126275	0.3257396111630488	-4.967763305474988e-06	-0.5481262201934896	-0.1804736456772768	-0.1581670633810365	-0.009589378436101874	0.03076048214128194	-0.2985752685620017	0.01969943058143098	-0.008244316704252574	0.2050566856582259	-8.206108087622091	-34.59672926019528	-8.204271352718461	0.09209081994687796	-5.013795226170564	-609.1625305850932	63.73481381465627	0.1368627038204442	0.6300158395583082	-0.8196912391360205	-0.6188703632314239	-0.01484123593043041	-0.4733692091136472	1.754278161322178	-0.9889058025153363	-0.9889058024838516	0.4172773286448324	0.04391485921725884	-0.6127116412618693	-0.06027879944436513	2.951715122069603e-08	-2.062953545165712e-07	-4.089735331432174e-06	-2.216095259955029e-06	5.696731715069527e-07	7.691120400763013e-08	-2.559221757243571e-06
1.54	-0.1010498263261383	0.03307846588248025	0.8182720272820195	0.8198704918327313	-0.2438385506991183	-0.07787920563073163	-0.6037182891468109	0.9297779908201503	0.9297779908205523	0.03386603935464434	0.1745286983866302	0.2895969972953937	0.1037579991968801	0.5522527572804449	0.2702074297451466	0.5667142632582646	-2.317862161369402	0.005725395682574375	-0.4133864153269764	0.8719963867498437	-2.209167227972467	-2.209167227972312	0.3302511795310119	6.366714916664819e-05	-0.5539478211134194	-0.1809859424052395	-0.1501084664425259	-0.01080863765234695	0.03031992490178662	-0.2941177963145275	0.02126125036269238	-0.008957616463742862	0.1976751787334909	-9.353107208988343	-33.77845342949077	-8.260041146730739	-0.0255108992393524	-5.036355803594986	-603.5719618540636	63.21932114718967	0.06576502753081832	0.6057297037980998	-0.8956658992007553	-0.40286283717836	-0.01403898277308519	-0.2979674191024155	1.692411484752071	-0.7806717301334597	-0.7806717301334791	0.5183088061100284	-0.06997634526193183	-0.5494073522274299	-0.03821204843599758	2.215879123876789e-08	-2.087903216664086e-07	-3.924148746887327e-06	-2.227519749170469e-06	5.508529469109049e-07	6.10510001841371e-08	-2.36997297013167e-06
